<svg xmlns="http://www.w3.org/2000/svg" version="1.1" xmlns:xlink="http://www.w3.org/1999/xlink" xmlns:svgjs="http://svgjs.dev/svgjs" width="1500" height="1518" viewBox="0 0 1500 1518"><g transform="matrix(1,0,0,1,1.325901639344238,0.6145748987853494)"><svg viewBox="0 0 244 247" data-background-color="#ffffff" preserveAspectRatio="xMidYMid meet" height="1518" width="1500" xmlns="http://www.w3.org/2000/svg" xmlns:xlink="http://www.w3.org/1999/xlink"><g id="tight-bounds" transform="matrix(1,0,0,1,-0.21567999999999188,-0.09999999999999432)"><svg viewBox="0 0 244.43135999999998 247.2" height="247.2" width="244.43135999999998"><g><svg></svg></g><g><svg viewBox="0 0 244.43135999999998 247.2" height="247.2" width="244.43135999999998"><g transform="matrix(1,0,0,1,0,66.566016)"><svg viewBox="0 0 244.43135999999998 114.06796799999998" height="114.06796799999998" width="244.43135999999998"><g><svg viewBox="0 0 244.43136 114.067968" height="114.06796799999998" width="244.43135999999998"><g><svg viewBox="0 0 244.43136 114.067968" height="114.067968" width="244.43136"><g id="textblocktransform"><svg viewBox="0 0 244.43136 114.067968" height="114.067968" width="244.43136" id="textblock"><g><svg viewBox="0 0 244.43136 114.067968" height="114.067968" width="244.43136"><g transform="matrix(1,0,0,1,0,0)"><svg width="244.43136" viewBox="0 -50 93.75 43.75" height="114.067968" data-palette-color="#1c4b82"><path d="M43.75-6.25L0-6.25 0-50 43.75-50 43.75-43.75 12.5-43.75 12.5-31.25 37.5-31.25 37.5-25 12.5-25 12.5-12.5 43.75-12.5 43.75-6.25ZM93.75-6.25L62.5-6.25 62.5-12.5 56.25-12.5 56.25-18.75 50-18.75 50-37.5 56.25-37.5 56.25-43.75 62.5-43.75 62.5-50 93.75-50 93.75-43.75 68.75-43.75 68.75-37.5 62.5-37.5 62.5-18.75 68.75-18.75 68.75-12.5 81.25-12.5 81.25-25 75-25 75-31.25 93.75-31.25 93.75-6.25Z" opacity="1" transform="matrix(1,0,0,1,0,0)" fill="#1c4b82" class="wordmark-text-0" data-fill-palette-color="primary" id="text-0"></path></svg></g></svg></g></svg></g></svg></g><g></g></svg></g></svg></g><path d="M0 60.566L0 1 244.431 1 244.431 60.566 234.145 60.566 234.145 11.287 10.287 11.287 10.287 60.566 0 60.566M0 186.634L0 246.2 244.431 246.2 244.431 186.634 234.145 186.634 234.145 235.913 10.287 235.913 10.287 186.634 0 186.634" fill="#1c4b82" stroke="transparent" data-fill-palette-color="primary"></path></svg></g><defs></defs></svg><rect width="244.43135999999998" height="247.2" fill="none" stroke="none" visibility="hidden"></rect></g></svg></g></svg>